<?xml version="1.0" encoding="utf-8"?>
<!-- Generator: Adobe Illustrator 23.0.1, SVG Export Plug-In . SVG Version: 6.00 Build 0)  -->
<svg version="1.1" id="Layer_1" xmlns="http://www.w3.org/2000/svg" xmlns:xlink="http://www.w3.org/1999/xlink" x="0px" y="0px"
	 viewBox="0 0 390.7 63" style="enable-background:new 0 0 390.7 63;" xml:space="preserve">
<style type="text/css">
	.st0{fill:#898A8D;}
	.st1{fill:#4D9D45;}
</style>
<g>
	<path class="st0" d="M171.8,41.5c0-6.3-18.7-2.6-18.7-13.6c0-4.4,4.8-8.3,11.6-8.3c7.2,0,11.3,3.7,11.3,6.1c0,1.2-0.9,2.4-2.5,2.4
		c-0.9,0-1.6-0.6-2.2-1.2c-1.2-1.2-3.7-2.6-6.6-2.6c-4.3,0-6.3,1.8-6.3,3.5c0,5.8,19,2.7,19,13.3c0,5.7-5.9,9-12.5,9
		c-7.7,0-12-4.1-12-6.3c0-1.5,1.1-2.5,2.5-2.5c0.9,0,1.6,0.5,2,0.9c1.7,1.8,4.2,3.1,7.6,3.1C168.9,45.3,171.8,43.7,171.8,41.5"/>
	<path class="st0" d="M195.9,50c-8.7,0-15.3-6.8-15.3-15.3s6.8-15.2,15.3-15.2c8.5,0,15.4,6.8,15.4,15.2
		C211.3,43.1,204.5,50,195.9,50 M195.9,24.4c-5.6,0-10.2,4.8-10.2,10.3c0,5.6,4.3,10.5,10.2,10.5c5.8,0,10.1-4.9,10.1-10.5
		C206,29.1,201.6,24.4,195.9,24.4"/>
	<path class="st0" d="M222.4,47.2c0,1.5-1.3,2.8-2.8,2.8c-1.5,0-2.8-1.4-2.8-2.8v-39c0-1.5,1.3-2.8,2.8-2.8c1.5,0,2.8,1.4,2.8,2.8
		V47.2z"/>
	<path class="st0" d="M234.5,35.4c0,6,4.4,9.8,9.3,9.8c4.9,0,9.3-3.8,9.3-9.8v-13c0-1.5,1.3-2.8,2.8-2.8c1.5,0,2.8,1.4,2.8,2.8v12.6
		c0,8.6-6.7,15.1-14.9,15.1c-8.2,0-14.9-6.6-14.9-15.1V22.3c0-1.5,1.4-2.8,2.9-2.8c1.5,0,2.8,1.4,2.8,2.8V35.4z"/>
	<path class="st0" d="M276.8,49.5h-2.9c-4.2,0-7.4-3.3-7.4-7.3v-17h-2.3c-1.4,0-2.5-1.1-2.5-2.5c0-1.2,1.1-2.5,2.5-2.5h2.3V15
		c0-1.5,1.4-2.8,2.9-2.8c1.5,0,2.8,1.2,2.8,2.8v5.1h5.4c1.4,0,2.5,1.1,2.5,2.5c0,1.4-1.2,2.5-2.5,2.5h-5.4v17c0,1.4,1.2,2.3,2.4,2.3
		h2.3c1.4,0,2.5,1.1,2.5,2.5C279.4,48.4,278.3,49.5,276.8,49.5"/>
	<path class="st0" d="M289.5,47.2c0,1.5-1.2,2.8-2.8,2.8c-1.5,0-2.8-1.4-2.8-2.8V22.9c0-1.5,1.2-2.8,2.8-2.8c1.6,0,2.8,1.4,2.8,2.8
		V47.2z"/>
	<path class="st0" d="M310.1,50c-8.7,0-15.3-6.8-15.3-15.3s6.8-15.2,15.3-15.2c8.5,0,15.4,6.8,15.4,15.2
		C325.5,43.1,318.7,50,310.1,50 M310.1,24.4c-5.6,0-10.2,4.8-10.2,10.3c0,5.6,4.3,10.5,10.2,10.5c5.8,0,10.1-4.9,10.1-10.5
		C320.2,29.1,315.8,24.4,310.1,24.4"/>
	<path class="st0" d="M354.3,34.2c0-6-4.4-9.8-9.3-9.8c-4.9,0-9.3,3.8-9.3,9.8v13c0,1.5-1.3,2.8-2.8,2.8c-1.5,0-2.8-1.4-2.8-2.8
		V34.6c0-8.6,6.7-15.1,14.9-15.1c8.2,0,14.9,6.6,14.9,15.1v12.6c0,1.5-1.4,2.8-2.9,2.8c-1.5,0-2.8-1.4-2.8-2.8V34.2z"/>
	<path class="st0" d="M383.9,41.5c0-6.3-18.7-2.6-18.7-13.6c0-4.4,4.8-8.3,11.6-8.3c7.2,0,11.3,3.7,11.3,6.1c0,1.2-0.9,2.4-2.5,2.4
		c-0.9,0-1.6-0.6-2.2-1.2c-1.2-1.2-3.7-2.6-6.6-2.6c-4.3,0-6.3,1.8-6.3,3.5c0,5.8,19,2.7,19,13.3c0,5.7-5.9,9-12.5,9
		c-7.7,0-12-4.1-12-6.3c0-1.5,1.1-2.5,2.5-2.5c0.9,0,1.6,0.5,2,0.9c1.7,1.8,4.2,3.1,7.6,3.1C381,45.3,383.9,43.7,383.9,41.5"/>
	<path class="st0" d="M1.2,21.9c0-1.5,1.3-2.8,2.8-2.8c1.5,0,2.8,1.3,2.8,2.8v1.5c2.1-2.3,5.2-4.3,9.9-4.3c7.9,0,14.5,6.8,14.5,15.3
		c0,8.6-6.7,15.2-14.5,15.2c-4.8,0-7.9-2.1-9.9-4.3v14.5c0,1.6-1.4,2.8-2.8,2.8c-1.5,0-2.8-1.2-2.8-2.8V21.9z M6.4,34.8
		c0,5.6,3.9,9.9,9.6,9.9c5.8,0,10-4.7,10-10.3c0-5.6-4.1-10.5-10-10.5c-5.8,0-9.6,4.6-9.6,10.2V34.8z"/>
	<path class="st0" d="M335.8,33.6c0,1.6-1.4,2.8-2.8,2.8c-1.5,0-2.8-1.2-2.8-2.8V21.9c0-1.5,1.3-2.8,2.8-2.8c1.5,0,2.8,1.3,2.8,2.8
		v1.5"/>
	<path class="st0" d="M44.1,34.9c0,6,4.4,9.8,9.3,9.8c4.9,0,9.3-3.8,9.3-9.8v-13c0-1.5,1.3-2.8,2.8-2.8c1.5,0,2.8,1.4,2.8,2.8v12.6
		c0,8.6-6.7,15.1-14.9,15.1c-8.2,0-14.9-6.6-14.9-15.1V21.9c0-1.5,1.4-2.8,2.9-2.8c1.5,0,2.8,1.4,2.8,2.8V34.9z"/>
	<path class="st0" d="M97,21.7c-1.5-1.3-4.3-2.6-7.5-2.6c-2.8,0-5.4,0.8-7.4,2.2c-0.3-1.3-1.4-2.2-2.8-2.2c-1.5,0-2.8,1.3-2.8,2.8
		v10.3v1.3v13.2c0,1.5,1.3,2.8,2.8,2.8c1.5,0,2.8-1.4,2.8-2.8V33.6v-2.2c0-4.2,2.9-7.4,7.1-7.4c2.1,0,3.5,1.1,4.5,1.8
		c0.6,0.4,1.1,0.6,1.8,0.6c1.3,0,2.5-1.2,2.5-2.6C98.1,23.1,97.8,22.3,97,21.7z"/>
	<path class="st0" d="M136.7,21.5c0,1.4-1.1,2.4-2.5,2.4c-1.4,0-2.5-1.1-2.5-2.4c0-1.4,1.1-2.4,2.5-2.4
		C135.6,19.1,136.7,20.1,136.7,21.5 M132.4,21.5c0,1.1,0.8,1.9,1.9,1.9c1,0,1.8-0.9,1.8-1.9c0-1.1-0.8-1.9-1.9-1.9
		C133.2,19.6,132.4,20.4,132.4,21.5 M133.8,22.7h-0.6v-2.4c0.2,0,0.5-0.1,0.9-0.1c0.5,0,0.7,0.1,0.8,0.2c0.1,0.1,0.2,0.3,0.2,0.5
		c0,0.3-0.2,0.5-0.5,0.6v0c0.2,0.1,0.4,0.3,0.4,0.6c0.1,0.4,0.1,0.5,0.2,0.6h-0.6c-0.1-0.1-0.1-0.3-0.2-0.6c0-0.3-0.2-0.4-0.5-0.4
		h-0.3V22.7z M133.9,21.4h0.3c0.3,0,0.6-0.1,0.6-0.4c0-0.2-0.2-0.4-0.5-0.4c-0.1,0-0.3,0-0.3,0V21.4z"/>
	<path class="st1" d="M133.9,37.9c-0.6-1.2-2-1.6-3.3-1c-0.5,0.3-0.8,0.7-1.1,1c-1,1.5-2.6,3.9-5.4,5.4c-4.4,2.4-9.5,1.2-12.7-2.4
		l2.8-1.5l3.7,2.4c0,0,1.6,1,2.6-0.6c1.1-1.6-0.8-2.6-0.8-2.6l-1.8-1.2l3.5-1.9l2.8,1.8c0,0,1.6,1,2.6-0.6c1.1-1.6-0.8-2.6-0.8-2.6
		l-1-0.6l4.7-2.5c1.6-0.9,2.1-3.1,1.2-4.7c-3.4-6.2-12-9.4-19.4-5.4c-6.6,3.6-9.6,11.6-7,18.7c-0.1,0.1-0.2,0.1-0.3,0.1
		c-1.2,0.5-3.4,0.8-5.1,0.4c0,0-2.5-0.4-2.9,2c-0.3,1.5,2.1,3.4,4.2,2.9c2.1-0.5,3.2-0.6,5.9-1.9c0,0,0,0,0,0
		c4.4,6.3,12.8,8.6,20,4.6c4.5-2.4,6.7-5.9,7.4-7.1C134.2,39.9,134.4,38.8,133.9,37.9 M113.9,24.9c4.4-2.4,9.9-0.5,12.2,2.8
		l-3.2,1.7l-0.1-1.3c0,0,0-2.3-1.9-2.1c-1.9,0.2-1.8,2.2-1.8,2.2l0.3,3.2l-3.6,1.9l-0.2-2.1c0,0,0-2.3-1.9-2.1
		c-1.9,0.2-1.8,2.2-1.8,2.2l0.3,3.9c0,0-1.3,0.8-2.9,1.7C108,32.6,109.5,27.3,113.9,24.9"/>
	<path class="st1" d="M302.3,0.7C302.3,0.7,302.2,0.7,302.3,0.7C302.2,0.6,302.2,0.6,302.3,0.7L302.3,0.7c-0.9,0-9.5-0.3-13.7,3.4
		c-3.3,3-2.4,8-1.7,10.4c1.2-1.7,3.8-4.8,9-7.6c-3.9,4.6-5.7,7.9-6.4,9.5c2.6,0.6,7,0.9,9.6-2.1C302.7,10.2,302.3,1.5,302.3,0.7
		L302.3,0.7z"/>
</g>
</svg>
