<svg id="Layer_1" xmlns="http://www.w3.org/2000/svg" viewBox="0 0 108.8 78"><style>.st0{fill-rule:evenodd;clip-rule:evenodd;fill:#1589ca}.st1{fill:#231f20}</style><path class="st0" d="M19.8 39.5c2.4-2.3 2.7-4.7.9-7.2l-9-9.7c-.5-.7-.5-1.5.1-2l13.3-9.7V3.1l-20 14.6c-2.7 2-1.9 5.3-.5 6.9l8.6 9.3c.4.4 1.4 1.6-.3 2.8L0 46.1v8l19.8-14.6zM0 65.3c2.4 1.8 5.1 1.8 9.6 0 2.9-1.1 7-2.8 10.3-.1 2.4 1.8 5.1 1.9 9.6.1 2.9-1.1 6.8-2.8 10-.1 2.4 1.9 5.2 1.9 9.8.1 2.9-1.1 6.9-2.7 10.2-.1v4.7c-1.6-1.2-3.2-1.7-5.6-1.4-1.3.2-2.8.7-4.6 1.4-3.9 1.5-6.8 2.2-9.8-.1-1.6-1.2-3.1-1.7-5.5-1.3-1.3.2-2.8.7-4.6 1.4-3.9 1.5-6.8 2.1-9.8-.1-1.6-1.2-3.2-1.7-5.6-1.4-4.6.9-9.3 5-14 1.6v-4.7z"/><path class="st0" d="M0 56.7c2.4 1.9 5.2 1.9 9.8.1 2.9-1.1 7-2.7 10.3-.1 1.9 1.4 3.9 1.8 7 1V1.8l3-1.8 3.7 2.9L54 17.6c2.9 2.1 2.1 5.3.5 7l-8.6 9.2c-.4.4-1.3 1.7.1 2.8l13.6 9.8v8.1l-20.3-15c-2.3-2.4-2.4-4.5-.7-7.1l9-9.7c.6-.7.5-1.6-.2-2.1l-13.5-9.8v44.9c2-.4 4.1-.3 6 1.2 2.4 1.9 5.2 1.9 9.8.1 2.9-1.1 6.7-2.7 10-.2v4.7c-1.5-1.1-3.1-1.6-5.4-1.3-1.3.2-2.8.7-4.6 1.4-3.9 1.5-6.8 2.2-9.8-.1-1.6-1.2-3.1-1.7-5.5-1.3-1.3.2-2.8.7-4.6 1.4-3.9 1.5-6.8 2.1-9.8-.1-1.6-1.2-3.2-1.7-5.6-1.4-1.3.2-2.8.7-4.6 1.4C5.9 63 3 63.7 0 61.4v-4.7z"/><path class="st1" d="M70.2 15.9l-.2-1.6c0-.3-.1-.5-.1-.6-.1-.1-.2-.3-.3-.4-.3-.3-.6-.5-1-.6-.5-.3-1.1-.4-1.7-.4-.9 0-1.6.4-2.2 1.1-.6.7-.8 1.6-.8 2.8 0 1 .3 1.7.8 2.2.5.5 1.5.8 2.9 1 1.6.2 2.7.7 3.3 1.3.6.6 1 1.6 1 2.9 0 1.8-.6 3.3-1.8 4.6-1.2 1.2-2.6 1.9-4.3 1.9-.6 0-1.2-.1-1.8-.3-.7-.2-1.2-.5-1.8-.8.1-.8.1-1.4.1-2v-2h.6l.2 1.6c0 .3.1.5.1.6.1.1.2.3.3.4.3.3.7.6 1.1.8.6.3 1.2.5 1.7.5 1.1 0 2-.4 2.6-1.1.7-.8 1-1.7 1-2.9 0-1.1-.3-1.8-.8-2.3-.6-.5-1.6-.8-3-1.1-1.5-.2-2.6-.7-3.2-1.4-.6-.7-.9-1.8-.9-3.2 0-1.5.5-2.8 1.5-3.9s2.2-1.6 3.7-1.6c.6 0 1.2.1 1.9.3.7.2 1.3.5 1.9.8-.1.7-.2 1.3-.2 1.8s-.1 1.1-.1 1.8h-.5v-.2zM75.1 17.6v7.7c0 1.1.2 1.9.5 2.4s.9.7 1.7.7c.6 0 1.2-.3 1.7-1 .2-.3.5-.7.7-1.1.1-.1.1-.3.1-.4 0-.2.1-.3.1-.5v-4.2c0-.9 0-1.4-.1-1.7-.1-.2-.3-.3-.7-.3h-.8v-.7c.6-.1 1.1-.3 1.6-.4.4-.2 1-.4 1.6-.6l.2.2v9.2c0 .8 0 1.3.1 1.6.1.2.3.3.7.4l.8.1v.8c-.7-.1-1.2-.1-1.7-.1s-1 0-1.7.1c0-.5.1-.9.1-1.2v-1.1c-1 1.2-1.6 1.9-1.9 2.2-.4.4-1 .6-1.8.6-1 0-1.7-.3-2.1-.9-.4-.6-.7-1.5-.7-2.8v-5.1c0-.9 0-1.4-.1-1.7-.1-.2-.3-.3-.7-.3h-.8v-.7c.6-.1 1.1-.3 1.6-.4.4-.2 1-.4 1.6-.6v-.2z"/><path class="st1" d="M84.4 32.8c0 .9.3 1.6.9 2.2.6.6 1.3.9 2.1.9 1 0 1.9-.4 2.7-1.1.7-.8 1.1-1.7 1.1-2.8 0-.7-.2-1.3-.6-1.6-.4-.4-1-.6-1.7-.6h-2c-.2 0-.4 0-.6.1-.2 0-.4.1-.5.2-.3.2-.6.5-.8.8-.5.5-.6 1.2-.6 1.9zM87 18.2c-.6 0-1.1.3-1.5.8-.4.5-.6 1.2-.6 2.1 0 1.1.2 2 .6 2.6.4.6 1 1 1.7 1 .6 0 1.1-.3 1.5-.8.4-.5.6-1.3.6-2.2 0-1-.2-1.9-.6-2.5-.4-.6-1-1-1.7-1zM85.5 27c0 .3.1.6.4.8.2.2.6.3 1.1.3h3c.8 0 1.5.3 1.9.8.4.5.7 1.3.7 2.3 0 1.6-.5 2.9-1.6 4s-2.4 1.6-3.9 1.6c-1.2 0-2.2-.4-3.1-1.1-.8-.7-1.2-1.6-1.2-2.7 0-.9.1-1.5.3-1.8.2-.3.9-.8 2-1.5l-.6-.3c-.5-.3-.8-.8-.8-1.3 0-.4.1-.7.2-.9.1-.2.7-.7 1.6-1.6-.6-.1-1.1-.4-1.5-.8-.6-.6-.9-1.5-.9-2.7 0-1.2.4-2.3 1.3-3.2.9-.9 1.9-1.4 3-1.4 1 0 1.9.3 2.5 1l.1.1 3-.2.1.3-.5 1.1h-1.9c.3.3.3.7.3 1.2 0 1.3-.4 2.4-1.2 3.3-.8.9-1.8 1.3-3 1.3h-.3c-.3.2-.5.5-.7.8-.2.3-.3.5-.3.6z"/><path class="st1" d="M98.6 26.4v-3.5l-1.6.3c-.9.2-1.6.6-2 1.1-.4.5-.7 1.1-.7 1.9 0 .6.2 1.1.4 1.5.3.4.7.6 1.1.6.4 0 .9-.2 1.4-.7.6-.3 1-.7 1.4-1.2zm-3.5 3.3c-.8 0-1.3-.3-1.8-.8-.4-.6-.7-1.3-.7-2.3 0-1.1.3-2 .9-2.6.6-.7 1.5-1.1 2.7-1.4l2.3-.5V22c0-1-.2-1.8-.6-2.4-.4-.6-1-.8-1.8-.8-.3 0-.6 0-.8.1h-.1c-.2 0-.3.1-.5.3-.1.1-.2.3-.3.6l-.4 1.1-.5-.2V19c.7-.6 1.3-1.1 1.8-1.3.5-.3 1-.4 1.5-.4 1.3 0 2.1.4 2.6 1.1.5.7.7 2.1.7 4v4.3c0 .8 0 1.3.1 1.5.1.2.3.3.6.4l.7.1v.8c-.6-.1-1.1-.1-1.5-.1-.4 0-.9 0-1.5.1 0-.7.1-1.2.1-1.6v-.6l-2.3 2-.3.2c-.2.2-.5.2-.9.2zM103.4 26.8v-5.6c0-.9 0-1.4-.1-1.7-.1-.2-.3-.3-.7-.3h-.8v-.7c.6-.1 1.1-.3 1.6-.4.4-.2 1-.4 1.5-.6l.2.2v2.5c.7-1.1 1.1-1.8 1.4-2.1.4-.5.9-.7 1.4-.7.2 0 .3 0 .5.1.2 0 .3.1.4.2l-.2 3.1h-.4c-.1-.4-.3-.7-.5-.9-.2-.2-.5-.3-.8-.3-.5 0-.9.3-1.3.9v.1c-.1.2-.2.5-.3.8-.1.3-.1.6-.1 1v4.5c0 .8.1 1.3.2 1.6.1.2.4.3.9.4l1 .1v.8c-1-.1-1.9-.1-2.7-.1-.8 0-1.6 0-2.7.1V29l.8-.1c.4 0 .6-.2.7-.4v-1.7zM64.1 47.2V35.6c0-1-.1-1.7-.2-1.9-.1-.3-.4-.4-.9-.4l-1-.1v-.8l3 .1 3.9-.1c1.4 0 2.5.3 3.2 1 .7.7 1.1 1.6 1.1 2.9 0 1.5-.5 2.8-1.6 3.7-.6.6-1.4 1-2.3 1.2l2.5 4.3 1 1.6c.6 1 1 1.7 1.2 1.9.2.2.4.4.7.4l.5.1v.8c-.5-.1-1-.1-1.4-.1-.4 0-.9 0-1.4.1-1.1-1.9-2.1-3.5-2.9-4.9-.8-1.3-1.7-2.8-2.7-4.5l.1-.4h.7c1.1 0 1.9-.3 2.6-1 .7-.7 1-1.6 1-2.6 0-1.1-.3-2-.8-2.7-.5-.6-1.3-1-2.2-1-.8 0-1.5.1-2.2.3V47c0 1 .1 1.7.2 1.9.1.3.4.4.9.4l1 .1v.8c-1.1-.1-2.1-.1-2.9-.1-.8 0-1.8 0-3 .1v-.8l1-.1c.5 0 .7-.2.9-.4v-1.7z"/><path class="st1" d="M77.2 32.6c.3 0 .6.1.8.4.2.3.3.6.3 1s-.1.7-.3 1c-.2.3-.5.4-.8.4-.3 0-.6-.1-.8-.4-.2-.3-.3-.6-.3-1s.1-.7.3-1c.2-.3.5-.4.8-.4zm-.7 15V42c0-.9 0-1.4-.1-1.7-.2-.2-.4-.3-.8-.3h-.8v-.7c.6-.1 1.1-.3 1.6-.4.4-.2 1-.4 1.5-.6l.2.2v9.2c0 .8 0 1.3.1 1.5.1.2.3.3.7.4l.8.1v.8c-1-.1-1.8-.1-2.5-.1s-1.5 0-2.5.1v-.8l.8-.1c.4 0 .6-.2.7-.4.2-.2.3-.8.3-1.6zM81.1 41.1c-.3-.8-.5-1.3-.6-1.5-.1-.2-.3-.3-.6-.4l-.6-.1v-.8c.9.1 1.7.1 2.3.1.7 0 1.4 0 2.3-.1v.8l-.8.1c-.4 0-.6.1-.6.4 0 .2.1.7.3 1.6l2.2 7.1 2-6c.4-1.3.7-2.1.7-2.5 0-.3-.2-.5-.6-.5l-.9-.1v-.8c.7.1 1.4.1 1.9.1s1.2 0 1.9-.1v.8l-.6.1c-.3 0-.5.2-.6.4-.1.2-.3.7-.6 1.5L86 47.7c-.2.5-.4 1.1-.5 1.6-.2.5-.3.9-.3 1.2H84c-.1-.3-.2-.7-.3-1.2-.2-.5-.3-1.1-.5-1.6l-2.1-6.6zM95.7 43.2c0-1.4-.2-2.4-.5-3.2-.4-.8-.9-1.1-1.6-1.1-.9 0-1.5.4-2 1.3-.4.8-.6 1.8-.7 3.1.9.1 1.7.1 2.4.1s1.5-.1 2.4-.2zm-2.2 7.5c-1.4 0-2.5-.5-3.3-1.6-.8-1.1-1.2-2.5-1.2-4.4 0-1.1.1-2.1.4-2.9.2-.9.6-1.5 1-2 .3-.3.5-.5.8-.7.2-.2.5-.4.7-.5.4-.2.7-.3 1-.4.3-.1.5-.1.8-.1 1.2 0 2.1.4 2.8 1.3.7.9 1 2 1 3.4v1c-.3.1-.8.2-1.7.2-.9.1-1.5.1-2 .1h-3c.1 1.6.4 2.8.9 3.7.6.9 1.5 1.4 2.7 1.4.4 0 .8-.1 1.3-.4.5-.2.9-.5 1.3-.9l.2.3-.4.9c-.5.4-1 .8-1.6 1-.5.4-1.1.6-1.7.6zM99.8 47.6V42c0-.9 0-1.4-.1-1.7-.1-.2-.3-.3-.7-.3h-.8v-.7c.6-.1 1.2-.3 1.6-.4.4-.2 1-.4 1.6-.6l.2.2V41c.7-1.1 1.1-1.8 1.4-2.1.4-.5.9-.7 1.5-.7.2 0 .3 0 .5.1.2 0 .3.1.4.2l-.2 3.1h-.4c-.1-.4-.3-.7-.5-.9-.2-.2-.5-.3-.8-.3-.5 0-.9.3-1.3.9v.1c-.1.2-.2.5-.3.8-.1.3-.1.6-.1 1v4.5c0 .8.1 1.3.2 1.6.1.2.4.3.9.4l1 .1v.8c-1-.1-2-.1-2.7-.1-.8 0-1.7 0-2.7.1v-.8l.8-.1c.4 0 .6-.2.7-.4-.2-.3-.2-.9-.2-1.7zM65.9 60.3v8c.5.2 1.1.2 1.7.2 1.1 0 2-.4 2.7-1.1.7-.8 1-1.8 1-3.1 0-1.4-.3-2.4-1-3.1-.6-.7-1.6-1-2.9-1-.5 0-1 0-1.5.1zm0-7.3v6.3h1.2c1.1 0 2-.3 2.6-.9.6-.6 1-1.5 1-2.5s-.3-1.8-.8-2.3c-.5-.5-1.3-.8-2.2-.8-.7 0-1.2 0-1.8.2zM64 66.7V54.9c0-1-.1-1.7-.2-1.9-.1-.3-.4-.4-.8-.4l-.9-.1v-.8l2.7.1 3.8-.1c1.3 0 2.2.3 2.9.9.6.6 1 1.5 1 2.7 0 1.3-.5 2.4-1.5 3.3-.5.4-1.1.7-1.7.9 1.1.2 1.9.5 2.6 1 .9.7 1.4 1.8 1.4 3.2 0 1.7-.5 3.2-1.6 4.3-1.1 1.1-2.4 1.7-4.1 1.7l-2.7-.1-1.9.1v-.6l.4-.2c.3-.1.5-.3.5-.6.1-.2.1-.8.1-1.6zM79.9 66.5V63l-1.5.4c-.9.2-1.6.6-2 1.1-.4.5-.6 1.1-.6 1.9 0 .6.2 1.1.4 1.5.3.4.7.6 1.1.6.4 0 .9-.2 1.4-.7.5-.4.8-.8 1.2-1.3zm-3.4 3.4c-.7 0-1.3-.3-1.8-.8-.4-.6-.7-1.3-.7-2.3 0-1.1.3-2 .9-2.6.6-.7 1.5-1.1 2.7-1.4l2.3-.6v-.1c0-1-.2-1.8-.6-2.4-.4-.6-1-.8-1.8-.8-.3 0-.6 0-.8.1h-.1c-.2 0-.3.1-.5.3-.1.1-.2.3-.3.6l-.4 1.1-.5-.2v-1.7c.7-.6 1.3-1.1 1.8-1.3.5-.3 1-.4 1.5-.4 1.3 0 2.1.4 2.6 1.1.5.7.7 2.1.7 4v4.3c0 .8 0 1.3.1 1.5.1.2.3.3.6.4l.6.1v.8c-.6-.1-1.1-.1-1.5-.1-.4 0-.9 0-1.5.1 0-.7.1-1.2.1-1.6v-.6l-2.2 2-.2.2c-.3.2-.6.3-1 .3z"/><path class="st1" d="M84.4 66.9v-5.6c0-.9 0-1.4-.1-1.7-.1-.2-.3-.3-.7-.3h-.8v-.7c.6-.1 1.1-.3 1.6-.4.4-.2 1-.4 1.6-.6l.2.2v2.1c.8-1 1.4-1.6 1.6-1.8.4-.3.9-.5 1.5-.5 1.1 0 2 .4 2.5 1.1.6.8.8 1.9.8 3.4V67c0 .8 0 1.3.1 1.6.1.2.3.3.7.4l.8.1v.8c-.6-.1-1.2-.1-1.6-.1-.5 0-1 0-1.6.1v-7.1c0-1.1-.2-2-.6-2.6-.4-.6-1-.9-1.8-.9-.6 0-1.2.3-1.7.8-.2.2-.4.5-.5.7-.1.1-.1.3-.2.4 0 .2-.1.3-.1.4V67c0 .8 0 1.3.1 1.6.1.2.3.3.7.4l.8.1v.8c-1-.1-1.8-.1-2.5-.1s-1.6 0-2.5.1v-.8l.8-.1c.4 0 .6-.1.7-.4.1-.3.2-.9.2-1.7z"/><path class="st1" d="M97.1 66.9c0 .8 0 1.3.1 1.6.1.2.3.3.7.4l.8.1v.8c-1-.1-1.8-.1-2.5-.1s-1.5 0-2.5.1V69l.8-.1c.4 0 .6-.1.7-.4.1-.2.1-.7.1-1.6v-13c0-.5 0-.9-.1-1.1-.1-.2-.3-.2-.5-.2h-1v-.7c.6-.1 1.1-.2 1.6-.4.4-.1 1-.3 1.5-.6l.2.2v11.8c.7-.7 1.2-1.3 1.8-1.9.6-.7 1.1-1.2 1.4-1.6.3-.4.7-.9 1.3-1.6h2v.8l-.4.1c-.3.1-.7.2-1 .5-.3.3-1 .9-1.9 1.8l-.1.1-1.3 1.4 3.3 4.2c.7.8 1.1 1.4 1.4 1.6.2.2.5.3.8.4h.1v.6l-1 .4-1 .4-5.3-6.6v3.4zM62.9 77.9v-5.5h5.7v.7h-4.7v1.6h4.4v.7h-4.4v1.9h4.9v.6h-5.9zM69.7 76.7l1-.1c.1.3.2.5.5.6.2.1.6.2 1 .2s.8-.1 1-.2c.2-.1.3-.3.3-.4 0-.2-.1-.3-.3-.4-.1-.1-.5-.1-1-.2-.7-.1-1.2-.2-1.5-.3-.3-.1-.5-.2-.6-.4-.1-.2-.2-.3-.2-.5s.1-.3.2-.5.3-.3.5-.4c.2-.1.4-.1.6-.2.3-.1.5-.1.8-.1.5 0 .8 0 1.2.1.3.1.6.2.8.4.2.2.3.4.3.6l-1 .1c0-.2-.2-.4-.4-.5-.2-.1-.5-.2-.9-.2s-.8.1-1 .2c-.2.1-.3.2-.3.4 0 .1 0 .2.1.2.1.1.2.1.4.2.1 0 .4.1.9.2.7.1 1.2.2 1.4.3.3.1.5.2.6.4.2.2.2.3.2.6 0 .2-.1.4-.3.6-.2.2-.5.4-.8.5-.2 0-.6.1-1 .1-.7 0-1.3-.1-1.7-.3-.4-.2-.7-.6-.8-1zM77.8 77.3l.1.6c-.3 0-.5.1-.7.1-.4 0-.6 0-.8-.1-.2-.1-.3-.2-.4-.3-.1-.1-.1-.4-.1-.8v-2.3h-.7V74h.7v-1l1-.4V74h1v.5h-1V77.2c0 .1.1.1.2.1h.7zM79 77.9v-.8h1.1v.8H79zM85.2 77.9h-1v-4.3c-.2.2-.5.3-.9.5s-.7.3-1 .3v-.6c.5-.2 1-.4 1.4-.6.4-.3.7-.5.9-.7h.6v5.4zM88.7 76.3c0 .2.1.4.2.6.1.2.3.3.6.4.3.1.5.1.8.1.5 0 .8-.1 1.2-.3.3-.2.5-.5.5-.8 0-.3-.2-.6-.5-.8-.3-.2-.7-.3-1.2-.3s-.8.1-1.1.3c-.4.2-.5.5-.5.8zm.3-2.5c0 .3.1.5.4.6.2.2.6.2.9.2.4 0 .7-.1.9-.2.2-.2.4-.4.4-.6 0-.2-.1-.5-.4-.6-.2-.2-.5-.2-.9-.2s-.7.1-.9.2c-.3.2-.4.4-.4.6zm.2 1.1c-.4-.1-.7-.2-.9-.4-.2-.2-.3-.4-.3-.7 0-.4.2-.7.6-1 .4-.3 1-.4 1.7-.4s1.2.1 1.7.4c.4.3.6.6.6 1 0 .3-.1.5-.3.7-.2.2-.5.3-.9.4.5.1.9.3 1.1.5.3.2.4.5.4.9 0 .5-.2.9-.7 1.2-.5.3-1.1.5-1.9.5-.8 0-1.4-.2-1.9-.5s-.7-.7-.7-1.2c0-.4.1-.7.4-.9.2-.2.6-.4 1.1-.5zM98 74.2c0-.4-.1-.7-.4-.9-.3-.2-.7-.3-1.1-.3-.4 0-.8.1-1.1.4-.3.2-.5.6-.5.9 0 .3.2.6.5.9.3.2.7.3 1.1.3.5 0 .8-.1 1.1-.3.2-.3.4-.6.4-1zm-4 2.4l.9-.1c.1.3.2.5.5.7.2.1.5.2.9.2.3 0 .6 0 .8-.1.2-.1.4-.2.6-.4.1-.2.3-.4.4-.6.1-.3.1-.5.1-.8v-.1c-.2.2-.5.4-.8.5-.5.1-.8.1-1.2.1-.7 0-1.2-.2-1.7-.5s-.7-.8-.7-1.3c0-.6.2-1 .7-1.3.5-.3 1.1-.5 1.8-.5.5 0 1 .1 1.4.3.4.2.8.5 1 .8.2.4.3.9.3 1.5 0 .7-.1 1.3-.3 1.7-.2.4-.5.7-1 .9-.4.2-.9.3-1.5.3s-1.1-.1-1.5-.4c-.4-.1-.6-.4-.7-.9zM100 76.5l1-.1c.1.3.3.6.5.8.3.2.6.3 1 .3.5 0 .9-.1 1.2-.4.3-.2.5-.6.5-1s-.2-.7-.5-.9c-.3-.2-.7-.3-1.2-.3-.3 0-.6 0-.8.1-.3.1-.5.2-.6.4l-.9-.1.8-2.8h3.9v.6h-3.2l-.4 1.5c.5-.2 1-.3 1.5-.3.7 0 1.3.2 1.7.5.5.3.7.8.7 1.3s-.2.9-.6 1.3c-.5.4-1.2.7-2.1.7-.7 0-1.3-.1-1.8-.4-.4-.4-.6-.8-.7-1.2z"/><path class="st1" d="M76 77.3v-.2h.2v.2H76zM75.8 77.6v-.2h.3v.2h-.3z"/></svg>